<svg xmlns="http://www.w3.org/2000/svg" version="1.1" xmlns:xlink="http://www.w3.org/1999/xlink" xmlns:svgjs="http://svgjs.dev/svgjs" width="100%" height="100%" viewBox="0 0 1000 600"><rect width="1000" height="600" x="0" y="0" fill="#ffffff"/><g><rect width="333.3333333333333" height="333.3333333333333" y="138.65662431634595" fill="#444444" transform="matrix(1.073565883636932,0,0,1.073565883636932,0,-27.784661442130357)" x="116.4344024658203"/><path d="M281.70613348196446 380.3232941355531Q273.603640553948 380.3232941355531 273.603640553948 375.63393925413703L273.603640553948 375.63393925413703L273.603640553948 246.55796217009635L242.82603921199586 246.55796217009635Q238.75995301735028 246.55796217009635 238.75995301735028 240.14719853474276L238.75995301735028 240.14719853474276L238.75995301735028 236.73406048814246Q238.75995301735028 230.32329685278887 242.82603921199586 230.32329685278887L242.82603921199586 230.32329685278887L323.1683408828393 230.32329685278887Q325.51301832354727 230.32329685278887 326.4924405456152 231.80726991652813Q327.4421833064083 233.32092244154217 327.4421833064083 236.73406048814246L327.4421833064083 236.73406048814246L327.4421833064083 240.14719853474276Q327.4421833064083 243.56033658134305 326.4924405456152 245.0739891063571Q325.51301832354727 246.55796217009635 323.1683408828393 246.55796217009635L323.1683408828393 246.55796217009635L292.83593146000885 246.55796217009635L292.83593146000885 375.63393925413703Q292.83593146000885 380.3232941355531 284.70375907071775 380.3232941355531L284.70375907071775 380.3232941355531L281.70613348196446 380.3232941355531Z " fill="#ffffff" transform="matrix(1.073565883636932,0,0,1.073565883636932,0,-27.784661442130357)"/><path d="M538.8260323383189 379.0543558012832Q535.8455091326824 379.0543558012832 534.4585329874853 377.57884926383934Q533.1010669730371 376.0738325956467 533.1010669730371 372.68016755952607L533.1010669730371 372.68016755952607L533.1010669730371 236.69748506870818Q533.1010669730371 233.3038200325875 534.4585329874853 231.79880336439487Q535.8455091326824 230.3232968269511 538.8260323383189 230.3232968269511L538.8260323383189 230.3232968269511L574.533290544458 230.3232968269511Q627.8580968076759 230.3232968269511 627.8580968076759 304.6888263141171L627.8580968076759 304.6888263141171Q627.8580968076759 379.0543558012832 574.533290544458 379.0543558012832L574.533290544458 379.0543558012832L538.8260323383189 379.0543558012832ZM552.4302026135505 362.9123142816483L574.0906385832251 362.9123142816483Q590.0261091876176 362.9123142816483 599.1742497197691 348.9835325681791Q608.2928801211716 335.0842609854588 608.2928801211716 304.6888263141171L608.2928801211716 304.6888263141171Q608.2928801211716 274.5294726887664 599.1742497197691 260.48265045230175Q590.0261091876176 246.46533834658595 574.0906385832251 246.46533834658595L574.0906385832251 246.46533834658595L552.4302026135505 246.46533834658595L552.4302026135505 362.9123142816483ZM692.6623439322063 380.3232914234848Q670.1461141708145 380.3232914234848 659.1978556629816 366.51255023301104Q648.2495971551489 352.7018090425374 648.2495971551489 324.2245328698727L648.2495971551489 324.2245328698727Q648.2495971551489 295.9833377431989 658.8732442247441 281.3168027610078Q669.4968912943392 266.6502677788167 690.0949625570541 266.6502677788167L690.0949625570541 266.6502677788167Q708.5978145365991 266.6502677788167 717.9525259839926 280.78562040752803Q727.2777273006371 294.92097303623933 727.2777273006371 322.0998034559536L727.2777273006371 322.0998034559536Q727.2777273006371 324.0179619546305 724.7398560562339 327.41162699075124Q722.2019848118306 330.8348021576207 720.2838263131538 330.8348021576207L720.2838263131538 330.8348021576207L667.3721618804201 330.8348021576207Q668.4345265873797 348.89500217593246 674.1594919526615 356.9512678703755Q679.9139674486922 365.0370436955673 692.4557730169643 365.0370436955673L692.4557730169643 365.0370436955673Q700.098896880923 365.0370436955673 705.2041495004784 362.9123142816483Q710.2798919892849 360.7875848677293 713.4669861101635 358.4562845385681Q716.654080231042 356.0954740786581 717.3033031075173 356.0954740786581L717.3033031075173 356.0954740786581Q719.4280325214364 356.0954740786581 722.0839442888351 360.3449329064961Q724.7398560562339 364.59439173433424 724.7398560562339 366.71912114825324L724.7398560562339 366.71912114825324Q724.7398560562339 369.28650252340543 720.3723567054004 372.5621270365305Q716.0343674853157 375.8672616804046 708.5978145365991 378.1100316173192Q701.1612615878824 380.3232914234848 692.6623439322063 380.3232914234848L692.6623439322063 380.3232914234848ZM667.3721618804201 315.5190442989544L708.3912436213569 315.5190442989544Q708.3912436213569 281.966025637483 689.4752498113278 281.966025637483L689.4752498113278 281.966025637483Q669.0837494638549 281.966025637483 667.3721618804201 315.5190442989544L667.3721618804201 315.5190442989544ZM771.8970449929368 379.46749763176734Q765.1097149206954 379.46749763176734 764.047350213736 376.0738325956467L764.047350213736 376.0738325956467L737.9013743702324 274.08682072753334Q737.4882325397481 271.9620913136143 737.4882325397481 271.1062975218969L737.4882325397481 271.1062975218969Q737.4882325397481 267.5060615705341 745.7805792801821 267.5060615705341L745.7805792801821 267.5060615705341L748.5250214398275 267.5060615705341Q755.3418616428178 267.5060615705341 756.1976554345351 270.8997266066548L756.1976554345351 270.8997266066548L769.7723155790178 327.20505607550905Q773.4020616611294 342.28473288818435 775.7333619902906 356.0954740786581L775.7333619902906 356.0954740786581L776.3825848667659 360.3449329064961L777.6515204889675 360.3449329064961Q780.3959626486129 340.80922635074063 784.2322796459667 325.08032666159005L784.2322796459667 325.08032666159005L796.980656129481 270.8997266066548Q797.8364499211983 267.5060615705341 804.8303509086818 267.5060615705341L804.8303509086818 267.5060615705341L807.397732283834 267.5060615705341Q815.0408561477926 267.5060615705341 815.0408561477926 271.1062975218969L815.0408561477926 271.1062975218969Q815.0408561477926 271.54894948313006 814.6277143173085 274.08682072753334L814.6277143173085 274.08682072753334L788.4817384738047 376.0738325956467Q787.6259446820874 379.46749763176734 780.8386146098461 379.46749763176734L780.8386146098461 379.46749763176734L771.8970449929368 379.46749763176734Z " fill="#4444" transform="matrix(1.073565883636932,0,0,1.073565883636932,0,-27.784661442130357)"/></g></svg>